<?xml version="1.0"?>
<svg xmlns="http://www.w3.org/2000/svg" xmlns:xlink="http://www.w3.org/1999/xlink" xmlns:svgjs="http://svgjs.com/svgjs" version="1.1" width="512" height="512" x="0" y="0" viewBox="0 0 74 74" style="enable-background:new 0 0 512 512" xml:space="preserve" class=""><g><path xmlns="http://www.w3.org/2000/svg" d="m28.182 69.074a1.013 1.013 0 0 1 -.122-.008 1 1 0 0 1 -.86-.8l-5.193-26.7-19.295-8.476a1 1 0 0 1 .053-1.853l68.69-25.574a1 1 0 0 1 1.321 1.172l-12.966 53.565a1 1 0 0 1 -1.456.64l-20.513-11.322-8.753 18.782a1 1 0 0 1 -.906.574zm-22.408-36.823 17.518 7.7a1 1 0 0 1 .579.725l4.705 24.19 7.905-16.966a1 1 0 0 1 1.389-.453l20.3 11.2 12.22-50.454z" fill="#fc7112" data-original="#000000" style="" class=""/><path xmlns="http://www.w3.org/2000/svg" d="m37.387 49.325a1 1 0 0 1 -.771-1.636l29.733-36.047-42.886 30.04a1 1 0 0 1 -1.148-1.638l48.915-34.263a1 1 0 0 1 1.346 1.455l-34.417 41.725a1 1 0 0 1 -.772.364z" fill="#fc7112" data-original="#000000" style="" class=""/><path xmlns="http://www.w3.org/2000/svg" d="m28.18 69.078a1 1 0 0 1 -.691-1.724l16.194-15.461a1 1 0 1 1 1.381 1.446l-16.194 15.461a1 1 0 0 1 -.69.278z" fill="#fc7112" data-original="#000000" style="" class=""/></g></svg>
